<svg width="10" height="8" viewBox="0 0 10 8" fill="none" xmlns="http://www.w3.org/2000/svg">
<path fill-rule="evenodd" clip-rule="evenodd" d="M5.19543 0.195262C5.45577 -0.0650874 5.87788 -0.0650874 6.13823 0.195262L9.47157 3.5286C9.59659 3.65362 9.66683 3.82319 9.66683 4C9.66683 4.17681 9.59659 4.34638 9.47157 4.47141L6.13823 7.80474C5.87788 8.06509 5.45577 8.06509 5.19543 7.80474C4.93508 7.54439 4.93508 7.12228 5.19543 6.86193L7.39069 4.66667L1.00016 4.66667C0.631973 4.66667 0.333496 4.36819 0.333496 4C0.333496 3.63181 0.631973 3.33333 1.00016 3.33333L7.39069 3.33333L5.19543 1.13807C4.93508 0.877722 4.93508 0.455612 5.19543 0.195262Z" fill="#5467DE"/>
</svg>
