<svg width="11" height="12" viewBox="0 0 11 12" fill="none" xmlns="http://www.w3.org/2000/svg">
<path fill-rule="evenodd" clip-rule="evenodd" d="M3.23799 1.92789C3.23799 2.09838 3.17026 2.26189 3.04971 2.38244C2.92916 2.50299 2.76565 2.57072 2.59517 2.57072C2.42468 2.57072 2.26117 2.50299 2.14062 2.38244C2.02007 2.26189 1.95234 2.09838 1.95234 1.92789C1.95234 1.7574 2.02007 1.5939 2.14062 1.47335C2.26117 1.35279 2.42468 1.28507 2.59517 1.28507C2.76565 1.28507 2.92916 1.35279 3.04971 1.47335C3.17026 1.5939 3.23799 1.7574 3.23799 1.92789ZM3.23799 3.74666C3.66689 3.59502 4.02838 3.29664 4.25856 2.90425C4.48874 2.51186 4.5728 2.05073 4.49587 1.60237C4.41894 1.154 4.18598 0.747261 3.83817 0.454041C3.49036 0.160822 3.05008 0 2.59517 0C2.14025 0 1.69997 0.160822 1.35216 0.454041C1.00435 0.747261 0.771392 1.154 0.694464 1.60237C0.617536 2.05073 0.701591 2.51186 0.931772 2.90425C1.16195 3.29664 1.52344 3.59502 1.95234 3.74666V4.49919C1.95234 5.01066 2.15552 5.50117 2.51718 5.86283C2.87884 6.22449 3.36935 6.42767 3.88082 6.42767H5.16647V8.25158C4.73733 8.40322 4.37562 8.70171 4.14527 9.09426C3.91493 9.48682 3.83079 9.94817 3.90772 10.3968C3.98465 10.8454 4.2177 11.2523 4.56568 11.5457C4.91365 11.8391 5.35414 12 5.80929 12C6.26444 12 6.70493 11.8391 7.05291 11.5457C7.40088 11.2523 7.63393 10.8454 7.71086 10.3968C7.78779 9.94817 7.70365 9.48682 7.47331 9.09426C7.24297 8.70171 6.88126 8.40322 6.45212 8.25158V6.42767H7.73777C8.24923 6.42767 8.73974 6.22449 9.1014 5.86283C9.46306 5.50117 9.66624 5.01066 9.66624 4.49919V3.74666C10.0951 3.59502 10.4566 3.29664 10.6868 2.90425C10.917 2.51186 11.001 2.05073 10.9241 1.60237C10.8472 1.154 10.6142 0.747261 10.2664 0.454041C9.91861 0.160822 9.47833 0 9.02342 0C8.5685 0 8.12822 0.160822 7.78041 0.454041C7.4326 0.747261 7.19964 1.154 7.12271 1.60237C7.04579 2.05073 7.12984 2.51186 7.36002 2.90425C7.5902 3.29664 7.95169 3.59502 8.38059 3.74666V4.49919C8.38059 4.66968 8.31286 4.83319 8.19231 4.95374C8.07176 5.07429 7.90825 5.14202 7.73777 5.14202H3.88082C3.71033 5.14202 3.54682 5.07429 3.42627 4.95374C3.30572 4.83319 3.23799 4.66968 3.23799 4.49919V3.74666ZM6.45212 10.0703C6.45212 10.2408 6.38439 10.4043 6.26384 10.5249C6.14328 10.6454 5.97978 10.7132 5.80929 10.7132C5.6388 10.7132 5.4753 10.6454 5.35474 10.5249C5.23419 10.4043 5.16647 10.2408 5.16647 10.0703C5.16647 9.89985 5.23419 9.73635 5.35474 9.6158C5.4753 9.49524 5.6388 9.42752 5.80929 9.42752C5.97978 9.42752 6.14328 9.49524 6.26384 9.6158C6.38439 9.73635 6.45212 9.89985 6.45212 10.0703ZM9.02342 2.57072C9.1939 2.57072 9.35741 2.50299 9.47796 2.38244C9.59851 2.26189 9.66624 2.09838 9.66624 1.92789C9.66624 1.7574 9.59851 1.5939 9.47796 1.47335C9.35741 1.35279 9.1939 1.28507 9.02342 1.28507C8.85293 1.28507 8.68942 1.35279 8.56887 1.47335C8.44832 1.5939 8.38059 1.7574 8.38059 1.92789C8.38059 2.09838 8.44832 2.26189 8.56887 2.38244C8.68942 2.50299 8.85293 2.57072 9.02342 2.57072Z" fill="#475569"/>
</svg>
