<svg width="12" height="13" viewBox="0 0 12 13" fill="none" xmlns="http://www.w3.org/2000/svg">
<path fill-rule="evenodd" clip-rule="evenodd" d="M5.04636 2.17253L7.17582 0.0646163C7.2069 0.0337776 7.24652 0.0127669 7.28968 0.00424778C7.33283 -0.0042713 7.37757 8.4879e-05 7.41822 0.0167641C7.45887 0.0334433 7.4936 0.0616944 7.518 0.0979358C7.54241 0.134177 7.5554 0.176777 7.55532 0.220334V4.43616C7.5554 4.47971 7.54241 4.52231 7.518 4.55855C7.4936 4.5948 7.45887 4.62305 7.41822 4.63973C7.37757 4.6564 7.33283 4.66076 7.28968 4.65224C7.24652 4.64372 7.2069 4.62271 7.17582 4.59187L5.04636 2.48396C5.02567 2.46353 5.00926 2.43926 4.99805 2.41254C4.98685 2.38582 4.98109 2.35717 4.98109 2.32824C4.98109 2.29931 4.98685 2.27067 4.99805 2.24395C5.00926 2.21723 5.02567 2.19296 5.04636 2.17253ZM2.0006 1.66842C1.82381 1.66842 1.65427 1.73794 1.52926 1.86168C1.40426 1.98542 1.33403 2.15325 1.33403 2.32824C1.33403 2.50324 1.40426 2.67107 1.52926 2.79481C1.65427 2.91855 1.82381 2.98807 2.0006 2.98807C2.17738 2.98807 2.34692 2.91855 2.47193 2.79481C2.59694 2.67107 2.66716 2.50324 2.66716 2.32824C2.66716 2.15325 2.59694 1.98542 2.47193 1.86168C2.34692 1.73794 2.17738 1.66842 2.0006 1.66842ZM0.000892864 2.32824C0.0010036 1.96537 0.10188 1.60951 0.292499 1.29955C0.483117 0.989592 0.756141 0.737466 1.08173 0.570725C1.40732 0.403985 1.77295 0.329047 2.13866 0.354101C2.50437 0.379156 2.85609 0.503239 3.15537 0.712789C3.45465 0.922339 3.68999 1.20929 3.83565 1.54229C3.98131 1.87529 4.03171 2.24151 3.98131 2.60094C3.93092 2.96037 3.78169 3.29917 3.54993 3.58032C3.31816 3.86147 3.01278 4.07414 2.66716 4.1951V8.81913C3.11215 8.97479 3.48722 9.28116 3.72607 9.6841C3.96492 10.087 4.05217 10.5606 3.9724 11.021C3.89263 11.4815 3.65097 11.8992 3.29014 12.2004C2.92932 12.5015 2.47255 12.6667 2.0006 12.6667C1.52864 12.6667 1.07188 12.5015 0.711048 12.2004C0.35022 11.8992 0.108561 11.4815 0.028789 11.021C-0.0509835 10.5606 0.0362666 10.087 0.275117 9.6841C0.513967 9.28116 0.889037 8.97479 1.33403 8.81913V4.1951C0.944053 4.05862 0.606429 3.80579 0.367671 3.47144C0.128912 3.1371 0.000767926 2.73769 0.000892864 2.32824ZM8.44408 1.66842H7.55532V2.98807H8.44408C8.67979 2.98807 8.90585 3.08076 9.07253 3.24574C9.2392 3.41073 9.33284 3.6345 9.33284 3.86783V8.81913C8.88785 8.97479 8.51278 9.28116 8.27393 9.6841C8.03508 10.087 7.94782 10.5606 8.0276 11.021C8.10737 11.4815 8.34903 11.8992 8.70986 12.2004C9.07068 12.5015 9.52745 12.6667 9.9994 12.6667C10.4714 12.6667 10.9281 12.5015 11.289 12.2004C11.6498 11.8992 11.8914 11.4815 11.9712 11.021C12.051 10.5606 11.9637 10.087 11.7249 9.6841C11.486 9.28116 11.111 8.97479 10.666 8.81913V3.86783C10.666 3.28451 10.4319 2.72508 10.0152 2.31261C9.59851 1.90015 9.03336 1.66842 8.44408 1.66842ZM9.33284 10.686C9.33284 10.511 9.40306 10.3432 9.52807 10.2194C9.65308 10.0957 9.82262 10.0262 9.9994 10.0262C10.1762 10.0262 10.3457 10.0957 10.4707 10.2194C10.5957 10.3432 10.666 10.511 10.666 10.686C10.666 10.861 10.5957 11.0288 10.4707 11.1526C10.3457 11.2763 10.1762 11.3458 9.9994 11.3458C9.82262 11.3458 9.65308 11.2763 9.52807 11.1526C9.40306 11.0288 9.33284 10.861 9.33284 10.686ZM2.0006 10.0262C1.82381 10.0262 1.65427 10.0957 1.52926 10.2194C1.40426 10.3432 1.33403 10.511 1.33403 10.686C1.33403 10.861 1.40426 11.0288 1.52926 11.1526C1.65427 11.2763 1.82381 11.3458 2.0006 11.3458C2.17738 11.3458 2.34692 11.2763 2.47193 11.1526C2.59694 11.0288 2.66716 10.861 2.66716 10.686C2.66716 10.511 2.59694 10.3432 2.47193 10.2194C2.34692 10.0957 2.17738 10.0262 2.0006 10.0262Z" fill="#475569"/>
</svg>
