<svg width="12" height="15" viewBox="0 0 12 15" fill="none" xmlns="http://www.w3.org/2000/svg">
<path fill-rule="evenodd" clip-rule="evenodd" d="M0.666688 2.88888C0.666688 2.29951 0.900815 1.73428 1.31756 1.31753C1.73431 0.900783 2.29954 0.666656 2.88891 0.666656L10.6667 0.666656C10.8435 0.666656 11.0131 0.736894 11.1381 0.861919C11.2631 0.986943 11.3334 1.15651 11.3334 1.33332V12.4444C11.3334 12.6212 11.2631 12.7908 11.1381 12.9158C11.0131 13.0409 10.8435 13.1111 10.6667 13.1111H8.44447C8.26765 13.1111 8.09808 13.0409 7.97306 12.9158C7.84804 12.7908 7.7778 12.6212 7.7778 12.4444C7.7778 12.2676 7.84804 12.0981 7.97306 11.973C8.09808 11.848 8.26765 11.7778 8.44447 11.7778H10V9.99999H2.88891C2.71387 10 2.54274 10.0517 2.39697 10.1486C2.2512 10.2455 2.13728 10.3833 2.0695 10.5447C2.00172 10.7061 1.98309 10.8839 2.01596 11.0558C2.04882 11.2277 2.13172 11.3861 2.25424 11.5111C2.37801 11.6375 2.44651 11.8078 2.44468 11.9847C2.44285 12.1615 2.37083 12.3304 2.24447 12.4542C2.1181 12.578 1.94775 12.6465 1.77089 12.6446C1.59402 12.6428 1.42512 12.5708 1.30135 12.4444C0.893988 12.0292 0.66606 11.4706 0.666688 10.8889V2.88888ZM10 1.99999V8.66666H2.88891C2.57247 8.66666 2.27202 8.73243 2.00002 8.85155V2.88888C2.00002 2.65313 2.09367 2.42704 2.26037 2.26034C2.42707 2.09364 2.65316 1.99999 2.88891 1.99999H10ZM3.33335 11.5555V14.4444C3.33335 14.4857 3.34485 14.5262 3.36654 14.5613C3.38824 14.5964 3.41928 14.6247 3.4562 14.6432C3.49311 14.6617 3.53443 14.6695 3.57553 14.6658C3.61664 14.6621 3.65589 14.647 3.68891 14.6222L4.9778 13.656C5.01626 13.6271 5.06305 13.6115 5.11113 13.6115C5.15921 13.6115 5.206 13.6271 5.24447 13.656L6.53335 14.6222C6.56637 14.647 6.60563 14.6621 6.64673 14.6658C6.68783 14.6695 6.72916 14.6617 6.76607 14.6432C6.80298 14.6247 6.83402 14.5964 6.85572 14.5613C6.87742 14.5262 6.88891 14.4857 6.88891 14.4444V11.5555C6.88891 11.4966 6.8655 11.4401 6.82382 11.3984C6.78215 11.3567 6.72562 11.3333 6.66669 11.3333H3.55558C3.49664 11.3333 3.44012 11.3567 3.39844 11.3984C3.35677 11.4401 3.33335 11.4966 3.33335 11.5555Z" fill="#475569"/>
</svg>
