<svg width="19" height="18" viewBox="0 0 19 18" fill="none" xmlns="http://www.w3.org/2000/svg">
<path d="M8.38053 1.42928C8.73975 0.323704 10.3038 0.323705 10.6631 1.42928L11.9465 5.37943C12.1072 5.87386 12.5679 6.20861 13.0878 6.20861H17.2413C18.4037 6.20861 18.8871 7.69615 17.9466 8.37943L14.5864 10.8208C14.1658 11.1263 13.9898 11.668 14.1505 12.1624L15.434 16.1126C15.7932 17.2181 14.5278 18.1375 13.5873 17.4542L10.2271 15.0129C9.80655 14.7073 9.23704 14.7073 8.81645 15.0129L5.45625 17.4542C4.51579 18.1375 3.25042 17.2181 3.60964 16.1126L4.89312 12.1624C5.05377 11.668 4.87778 11.1263 4.4572 10.8208L1.09699 8.37943C0.156538 7.69615 0.639869 6.20861 1.80234 6.20861H5.95578C6.47565 6.20861 6.93639 5.87386 7.09704 5.37943L8.38053 1.42928Z" fill="#94A3B8"/>
</svg>
