<svg width="18" height="18" viewBox="0 0 18 18" fill="none" xmlns="http://www.w3.org/2000/svg">
<path fill-rule="evenodd" clip-rule="evenodd" d="M9.00115 1.90771e-07C9.17125 -0.000109861 9.33798 0.047397 9.48248 0.137144C9.62698 0.226891 9.74347 0.355293 9.81876 0.507819L12.1052 5.14258L17.2198 5.88608C17.388 5.91051 17.546 5.98151 17.676 6.09105C17.806 6.20059 17.9027 6.34431 17.9553 6.50596C18.0079 6.6676 18.0142 6.84073 17.9735 7.00578C17.9329 7.17082 17.8468 7.3212 17.7252 7.43991L14.0247 11.0481L14.8982 16.1409C14.927 16.3084 14.9083 16.4807 14.8443 16.6382C14.7803 16.7958 14.6735 16.9322 14.536 17.0322C14.3985 17.1322 14.2357 17.1917 14.0661 17.204C13.8965 17.2163 13.7269 17.1809 13.5764 17.1018L9.00115 14.6964L4.42592 17.1018C4.2755 17.1808 4.106 17.2162 3.93656 17.2039C3.76711 17.1916 3.60447 17.1322 3.467 17.0324C3.32952 16.9326 3.2227 16.7963 3.15858 16.639C3.09446 16.4817 3.0756 16.3096 3.10413 16.1421L3.97885 11.0469L0.275899 7.43991C0.153884 7.32125 0.0675462 7.17078 0.0266687 7.00556C-0.0142088 6.84033 -0.00799166 6.66697 0.0446157 6.5051C0.0972232 6.34323 0.194117 6.19933 0.324319 6.08971C0.45452 5.98009 0.612822 5.90913 0.781288 5.88487L5.89592 5.14258L8.18354 0.507819C8.25883 0.355293 8.37532 0.226891 8.51982 0.137144C8.66432 0.047397 8.83105 -0.000109861 9.00115 1.90771e-07ZM9.00115 2.97038L7.31854 6.37811C7.2532 6.51041 7.15671 6.62486 7.03735 6.71163C6.918 6.79839 6.77936 6.85487 6.63335 6.87621L2.87088 7.4229L5.5922 10.0762C5.69808 10.1793 5.7773 10.3066 5.82301 10.4471C5.86873 10.5877 5.87957 10.7372 5.85462 10.8829L5.21316 14.6296L8.57716 12.8607C8.70792 12.792 8.85343 12.756 9.00115 12.756C9.14888 12.756 9.29439 12.792 9.42514 12.8607L12.7904 14.6296L12.1465 10.8829C12.1215 10.7372 12.1324 10.5877 12.1781 10.4471C12.2238 10.3066 12.303 10.1793 12.4089 10.0762L15.1302 7.42412L11.3689 6.87742C11.2229 6.85608 11.0843 6.79961 10.9649 6.71284C10.8456 6.62608 10.7491 6.51162 10.6838 6.37932L9.00115 2.96916V2.97038Z" fill="#94A3B8"/>
</svg>
