<svg width="12" height="14" viewBox="0 0 12 14" fill="none" xmlns="http://www.w3.org/2000/svg">
<path fill-rule="evenodd" clip-rule="evenodd" d="M3.33333 1.66683C3.33333 0.93045 3.93029 0.333496 4.66667 0.333496H7.33333C8.06971 0.333496 8.66667 0.93045 8.66667 1.66683V3.00016H10.6598C10.6639 3.00012 10.668 3.00012 10.6722 3.00016H11.3333C11.7015 3.00016 12 3.29864 12 3.66683C12 4.03502 11.7015 4.3335 11.3333 4.3335H11.2874L10.7534 11.8093C10.6787 12.8559 9.80779 13.6668 8.75851 13.6668H3.24149C2.19221 13.6668 1.32133 12.8559 1.24657 11.8093L0.712587 4.3335H0.666667C0.298477 4.3335 0 4.03502 0 3.66683C0 3.29864 0.298477 3.00016 0.666667 3.00016H1.32783C1.33197 3.00012 1.33609 3.00012 1.34021 3.00016H3.33333V1.66683ZM2.04932 4.3335L2.57652 11.7143C2.60144 12.0632 2.89173 12.3335 3.24149 12.3335H8.75851C9.10827 12.3335 9.39856 12.0632 9.42348 11.7143L9.95068 4.3335H2.04932ZM7.33333 3.00016H4.66667V1.66683H7.33333V3.00016ZM4.66667 5.66683C5.03486 5.66683 5.33333 5.96531 5.33333 6.3335V10.3335C5.33333 10.7017 5.03486 11.0002 4.66667 11.0002C4.29848 11.0002 4 10.7017 4 10.3335V6.3335C4 5.96531 4.29848 5.66683 4.66667 5.66683ZM7.33333 5.66683C7.70152 5.66683 8 5.96531 8 6.3335V10.3335C8 10.7017 7.70152 11.0002 7.33333 11.0002C6.96514 11.0002 6.66667 10.7017 6.66667 10.3335V6.3335C6.66667 5.96531 6.96514 5.66683 7.33333 5.66683Z" fill="#111827"/>
</svg>
